<svg id="icons" enable-background="new 0 0 64 64" height="512" viewBox="0 0 64 64" width="512" xmlns="http://www.w3.org/2000/svg"><path d="m46 39v.98c0 1.66-1.34 3-3 3h-26c-1.66 0-3-1.34-3-3v-.98h1 30z" fill="#e6e9ed"/><path d="m32 19c0 1.11-.9 2-2 2s-2-.89-2-2c0-1.1.9-2 2-2s2 .9 2 2z" fill="#aab2bd"/><path d="m44.69 33h.01c.189.971.29 1.971.29 2.99h.01v2.99.02h-30v-.02-2.99h.01c0-1.02.101-2.029.29-2.99h.01c1.38-6.85 7.43-12 14.69-12s13.31 5.15 14.69 12z" fill="#ccd1d9"/><path d="m44.99 35.99c0-1.02-.101-2.02-.29-2.99h-.01c-1.38-6.85-7.43-12-14.69-12-.681 0-1.346.06-2.002.147 6.347.847 11.437 5.645 12.689 11.853h.01c.189.971.29 1.971.29 2.99h.01v2.99.02h4.003v-.02-2.99z" fill="#aab2bd"/><path d="m46 39h-1v-.02-2.99h-.01c0-1.02-.101-2.02-.29-2.99h5.3l4 18h-35-4-4-5l4.5-18h4.8c-.189.961-.29 1.971-.29 2.99h-.01v2.99.02h-1v.98c0 1.66 1.34 3 3 3h26c1.66 0 3-1.34 3-3z" fill="#5d9cec"/><path d="m7.44 33h3.06l-4.5 18h-3c-1.1 0-2-.899-2-2 0-.26.05-.51.14-.739l4.39-13.861c.25-.809 1.01-1.4 1.91-1.4z" fill="#434a54"/><path d="m56 40c1.1 0 2 .671 2 1.5 0 .83-.9 1.5-2 1.5s-2-.67-2-1.5c0-.829.9-1.5 2-1.5z" fill="#aab2bd"/><path d="m58 41.5c0-.829-.9-1.5-2-1.5s-2 .671-2 1.5c0 .83.9 1.5 2 1.5s2-.67 2-1.5zm.47-7.1 4.391 13.86c.089.23.139.48.139.74 0 1.101-.9 2-2 2h-7l-4-18h6.56c.9 0 1.66.591 1.91 1.4z" fill="#434a54"/><path d="m15 51h4v4h-4z" fill="#656d78"/><path d="m63 49v4c0 1.101-.9 2-2 2h-42v-4h35 7c1.1 0 2-.899 2-2z" fill="#545c66"/><path d="m3 51h3 5v4h-8c-1.1 0-2-.899-2-2v-4c0 1.101.9 2 2 2z" fill="#545c66"/><path d="m11 51h4v4h-4z" fill="#656d78"/><path d="m6.03 42.01c-.553 0-1.005-.447-1.005-1s.442-1 .994-1h.011c.552 0 1 .447 1 1s-.448 1-1 1z"/><path d="m1.142 49.27c-.1 0-.201-.015-.302-.047-.526-.166-.818-.729-.651-1.255l4.386-13.859c.167-.525.727-.821 1.255-.651.526.166.818.729.651 1.255l-4.386 13.858c-.135.426-.529.699-.953.699z"/><path d="m3 52.01c-1.654 0-3-1.346-3-3 0-.381.07-.753.21-1.106.203-.515.785-.764 1.297-.564.515.203.767.783.564 1.297-.048.119-.071.245-.071.373 0 .552.448 1 1 1 .553 0 1 .447 1 1s-.447 1-1 1z"/><path d="m5.527 35.41c-.099 0-.199-.015-.299-.046-.527-.165-.82-.726-.655-1.253.394-1.257 1.544-2.102 2.862-2.102.553 0 1 .447 1 1s-.447 1-1 1c-.433 0-.825.287-.954.699-.133.429-.528.702-.954.702z"/><path d="m62.858 49.27c-.425 0-.818-.272-.953-.698l-4.385-13.86c-.167-.526.125-1.089.651-1.255.53-.17 1.089.126 1.255.651l4.386 13.859c.167.526-.125 1.089-.651 1.255-.101.033-.203.048-.303.048z"/><path d="m61 52.01c-.553 0-1-.447-1-1s.447-1 1-1c.552 0 1-.448 1-1 0-.128-.023-.254-.071-.374-.202-.514.05-1.094.564-1.297.513-.199 1.094.05 1.297.564.14.354.21.726.21 1.107 0 1.654-1.346 3-3 3z"/><path d="m58.473 35.41c-.426 0-.82-.273-.954-.701-.129-.412-.521-.699-.954-.699-.553 0-1-.447-1-1s.447-1 1-1c1.318 0 2.469.845 2.862 2.102.165.527-.128 1.088-.655 1.253-.1.031-.201.045-.299.045z"/><path d="m61 52.01h-58c-.553 0-1-.447-1-1s.447-1 1-1h58c.553 0 1 .447 1 1s-.447 1-1 1z"/><path d="m3 56.01c-1.654 0-3-1.346-3-3 0-.553.447-1 1-1s1 .447 1 1c0 .552.448 1 1 1 .553 0 1 .447 1 1s-.447 1-1 1z"/><path d="m61 56.01c-.553 0-1-.447-1-1s.447-1 1-1c.552 0 1-.448 1-1 0-.553.447-1 1-1s1 .447 1 1c0 1.654-1.346 3-3 3z"/><path d="m61 56.01h-58c-.553 0-1-.447-1-1s.447-1 1-1h58c.553 0 1 .447 1 1s-.447 1-1 1z"/><path d="m15.309 34.01h-7.873c-.553 0-1-.447-1-1s.447-1 1-1h7.873c.553 0 1 .447 1 1s-.448 1-1 1z"/><path d="m6.001 52.01c-.08 0-.162-.01-.243-.03-.536-.134-.862-.677-.728-1.212l4.5-18c.133-.536.676-.864 1.212-.728.536.134.862.677.728 1.212l-4.5 18c-.114.455-.521.758-.969.758z"/><path d="m53.999 52.008c-.458 0-.872-.317-.976-.783l-4-17.998c-.119-.539.221-1.073.76-1.193.537-.114 1.074.221 1.193.76l4 17.998c.119.539-.221 1.073-.76 1.193-.072.015-.145.023-.217.023z"/><path d="m56 44.01c-1.683 0-3-1.098-3-2.5s1.317-2.5 3-2.5 3 1.098 3 2.5-1.317 2.5-3 2.5zm0-3c-.62 0-1 .323-1 .5s.38.5 1 .5 1-.323 1-.5-.38-.5-1-.5z"/><path d="m1 54.01c-.553 0-1-.447-1-1v-4c0-.553.447-1 1-1s1 .447 1 1v4c0 .553-.447 1-1 1z"/><path d="m63 54.01c-.553 0-1-.447-1-1v-4c0-.553.447-1 1-1s1 .447 1 1v4c0 .553-.447 1-1 1z"/><path d="m11 56.008c-.553 0-1-.447-1-1v-4c0-.553.447-1 1-1s1 .447 1 1v4c0 .553-.447 1-1 1z"/><path d="m15 56.01c-.553 0-1-.447-1-1v-4c0-.553.447-1 1-1s1 .447 1 1v4c0 .553-.447 1-1 1z"/><path d="m19 56.01c-.553 0-1-.447-1-1v-4c0-.553.447-1 1-1s1 .447 1 1v4c0 .553-.447 1-1 1z"/><path d="m56.564 34.01h-11.874c-.553 0-1-.447-1-1s.447-1 1-1h11.874c.553 0 1 .447 1 1s-.447 1-1 1z"/><path d="m47 40.012h-34c-.553 0-1-.447-1-1s.447-1 1-1h34c.553 0 1 .447 1 1s-.447 1-1 1z"/><path d="m17 43.99c-2.206 0-4-1.794-4-4 0-.553.447-1 1-1s1 .447 1 1c0 1.103.897 2 2 2 .553 0 1 .447 1 1s-.447 1-1 1z"/><path d="m43 43.99c-.553 0-1-.447-1-1s.447-1 1-1c1.103 0 2-.897 2-2 0-.553.447-1 1-1s1 .447 1 1c0 2.206-1.794 4-4 4z"/><path d="m14 40.99c-.553 0-1-.447-1-1v-1.002c0-.553.447-1 1-1s1 .447 1 1v1.002c0 .553-.447 1-1 1z"/><path d="m46 40.99c-.553 0-1-.447-1-1v-1.002c0-.553.447-1 1-1s1 .447 1 1v1.002c0 .553-.447 1-1 1z"/><path d="m44.989 37.002c-.553 0-1-.447-1-1 0-7.714-6.276-13.99-13.99-13.99s-13.989 6.276-13.989 13.99c0 .553-.447 1-1 1s-1-.447-1-1c0-8.817 7.173-15.99 15.989-15.99 8.817 0 15.99 7.173 15.99 15.99 0 .553-.447 1-1 1z"/><path d="m15 39.988c-.553 0-1-.447-1-1v-2.986c0-.553.447-1 1-1s1 .447 1 1v2.986c0 .553-.447 1-1 1z"/><path d="m45 39.988c-.553 0-1-.447-1-1v-2.986c0-.553.447-1 1-1s1 .447 1 1v2.986c0 .553-.447 1-1 1z"/><path d="m30 22.012c-1.654 0-3-1.346-3-3s1.346-3 3-3 3 1.346 3 3-1.346 3-3 3zm0-4c-.552 0-1 .448-1 1s.448 1 1 1 1-.448 1-1-.448-1-1-1z"/><path d="m20.105 18.99c-.256 0-.512-.098-.707-.293-.391-.391-.391-1.023 0-1.414.218-.228 1.272-1.485-.074-3.168-2.023-2.53-.837-4.922.074-5.832.391-.391 1.023-.391 1.414 0 .389.389.391 1.018.006 1.408-.228.238-1.275 1.494.068 3.174 2.023 2.53.837 4.922-.074 5.832-.195.196-.451.293-.707.293z"/><path d="m40.102 18.99c-.256 0-.512-.098-.707-.293-.391-.391-.391-1.023 0-1.414.218-.228 1.272-1.485-.074-3.168-2.023-2.53-.837-4.922.074-5.832.391-.391 1.023-.391 1.414 0 .389.389.391 1.018.006 1.408-.228.238-1.275 1.494.068 3.174 2.023 2.53.837 4.922-.074 5.832-.196.196-.452.293-.707.293z"/><path d="m30.105 14.49c-.294 0-.584-.128-.782-.375-2.023-2.53-.837-4.922.074-5.832.391-.391 1.023-.391 1.414 0 .389.389.391 1.018.006 1.408-.228.238-1.275 1.494.068 3.174.345.432.274 1.061-.156 1.406-.184.148-.405.219-.624.219z"/><path d="m43 43.99h-26c-.553 0-1-.447-1-1s.447-1 1-1h26c.553 0 1 .447 1 1s-.447 1-1 1z"/></svg>